M48
; DRILL file {KiCad 9.0.1} date 2025-09-16T14:58:30+0800
; FORMAT={-:-/ absolute / inch / decimal}
; #@! TF.CreationDate,2025-09-16T14:58:30+08:00
; #@! TF.GenerationSoftware,Kicad,Pcbnew,9.0.1
; #@! TF.FileFunction,Plated,1,6,PTH
FMAT,2
INCH
; #@! TA.AperFunction,Plated,PTH,ViaDrill
T1C0.0118
; #@! TA.AperFunction,Plated,PTH,ComponentDrill
T2C0.0118
; #@! TA.AperFunction,Plated,PTH,ViaDrill
T3C0.0138
; #@! TA.AperFunction,Plated,PTH,ViaDrill
T4C0.0157
; #@! TA.AperFunction,Plated,PTH,ComponentDrill
T5C0.0197
; #@! TA.AperFunction,Plated,PTH,ViaDrill
T6C0.0236
; #@! TA.AperFunction,Plated,PTH,ComponentDrill
T7C0.0236
; #@! TA.AperFunction,Plated,PTH,ComponentDrill
T8C0.0394
; #@! TA.AperFunction,Plated,PTH,ComponentDrill
T9C0.0420
; #@! TA.AperFunction,Plated,PTH,ComponentDrill
T10C0.0512
; #@! TA.AperFunction,Plated,PTH,ComponentDrill
T11C0.0669
; #@! TA.AperFunction,Plated,PTH,ComponentDrill
T12C0.1260
; #@! TA.AperFunction,Plated,PTH,ComponentDrill
T13C0.1654
%
G90
G05
T1
X4.0035Y-5.0476
X4.0696Y-4.9642
X4.0728Y-3.9602
X4.0728Y-4.7894
X4.084Y-2.8892
X4.0862Y-4.4646
X4.0941Y-5.1248
X4.0949Y-5.087
X4.0984Y-4.5256
X4.1083Y-4.0059
X4.1211Y-4.7879
X4.122Y-4.9959
X4.1441Y-5.0453
X4.146Y-4.7762
X4.1504Y-4.437
X4.1555Y-4.4902
X4.1683Y-1.8169
X4.1705Y-5.0209
X4.1732Y-4.5217
X4.1732Y-4.7717
X4.1752Y-4.5591
X4.1752Y-4.7323
X4.1811Y-4.4311
X4.1988Y-4.7323
X4.2008Y-3.0358
X4.2043Y-4.9969
X4.2157Y-4.3394
X4.2293Y-1.8169
X4.2343Y-4.563
X4.2433Y-3.0358
X4.2461Y-4.5177
X4.2496Y-4.8575
X4.252Y-4.7835
X4.253Y-4.3022
X4.2569Y-4.262
X4.2746Y-2.6624
X4.3071Y-2.874
X4.3102Y-4.226
X4.311Y-5.1693
X4.311Y-5.2087
X4.3236Y-2.5787
X4.3268Y-3.7953
X4.3268Y-3.8189
X4.3268Y-3.8425
X4.3268Y-3.9921
X4.3268Y-4.0197
X4.3268Y-4.0472
X4.3287Y-2.4882
X4.3504Y-3.7953
X4.3504Y-3.8189
X4.3504Y-3.8425
X4.3504Y-4.2283
X4.3504Y-4.2717
X4.3504Y-4.311
X4.3504Y-4.3799
X4.3504Y-4.4193
X4.3504Y-4.4587
X4.3504Y-4.498
X4.3504Y-4.5374
X4.3524Y-4.6063
X4.3524Y-4.6457
X4.3524Y-4.685
X4.3543Y-3.9921
X4.3543Y-4.0197
X4.3543Y-4.0472
X4.3583Y-1.9679
X4.3858Y-2.4193
X4.3858Y-2.815
X4.3898Y-4.2283
X4.3898Y-4.2717
X4.3898Y-4.311
X4.3898Y-4.3799
X4.3898Y-4.4193
X4.3898Y-4.4587
X4.3898Y-4.498
X4.3898Y-4.5374
X4.3917Y-4.6063
X4.3917Y-4.6457
X4.3917Y-4.685
X4.3925Y-3.6811
X4.3925Y-3.7047
X4.3925Y-3.7283
X4.3925Y-3.752
X4.3933Y-3.4354
X4.3933Y-3.4591
X4.3933Y-3.4827
X4.3933Y-3.5063
X4.4094Y-2.7795
X4.4158Y-3.9921
X4.4158Y-4.0197
X4.4158Y-4.0472
X4.4173Y-3.435
X4.4173Y-3.4587
X4.4173Y-3.4823
X4.4173Y-3.5059
X4.4173Y-3.6811
X4.4173Y-3.7047
X4.4173Y-3.7283
X4.4173Y-3.752
X4.4198Y-3.7953
X4.4198Y-3.8189
X4.4198Y-3.8425
X4.4236Y-2.4827
X4.4291Y-4.2283
X4.4291Y-4.2717
X4.4291Y-4.311
X4.4291Y-4.3799
X4.4291Y-4.4193
X4.4291Y-4.4587
X4.4291Y-4.498
X4.4291Y-4.5374
X4.4311Y-4.6063
X4.4311Y-4.6457
X4.4311Y-4.685
X4.4331Y-1.8031
X4.4409Y-3.435
X4.4409Y-3.4587
X4.4409Y-3.4823
X4.4409Y-3.5059
X4.4409Y-3.6811
X4.4409Y-3.7047
X4.4409Y-3.7283
X4.4409Y-3.752
X4.4434Y-3.7953
X4.4434Y-3.8189
X4.4434Y-3.8425
X4.4434Y-3.9921
X4.4434Y-4.0197
X4.4434Y-4.0472
X4.4646Y-3.4354
X4.4646Y-3.4591
X4.4646Y-3.4827
X4.4646Y-3.5063
X4.4657Y-3.6815
X4.4657Y-3.7051
X4.4657Y-3.7287
X4.4657Y-3.7524
X4.4685Y-4.2283
X4.4685Y-4.2717
X4.4685Y-4.311
X4.4685Y-4.3799
X4.4685Y-4.4193
X4.4685Y-4.4587
X4.4685Y-4.498
X4.4685Y-4.5374
X4.4705Y-4.6063
X4.4705Y-4.6457
X4.4705Y-4.685
X4.4744Y-2.4823
X4.5064Y-3.9921
X4.5064Y-4.0197
X4.5064Y-4.0472
X4.5079Y-4.2283
X4.5079Y-4.2717
X4.5079Y-4.311
X4.5079Y-4.3799
X4.5079Y-4.4193
X4.5079Y-4.4587
X4.5079Y-4.498
X4.5079Y-4.5374
X4.5098Y-4.6063
X4.5098Y-4.6457
X4.5098Y-4.685
X4.5103Y-3.7953
X4.5103Y-3.8189
X4.5103Y-3.8425
X4.5236Y-2.4823
X4.5303Y-3.3909
X4.5307Y-3.3543
X4.534Y-3.7953
X4.534Y-3.8189
X4.534Y-3.8425
X4.534Y-3.9921
X4.534Y-4.0197
X4.534Y-4.0472
X4.5457Y-3.2693
X4.5472Y-3.2307
X4.5472Y-4.2283
X4.5472Y-4.2717
X4.5472Y-4.311
X4.5472Y-4.3799
X4.5472Y-4.4193
X4.5472Y-4.4587
X4.5472Y-4.498
X4.5472Y-4.5374
X4.5482Y-3.6407
X4.5482Y-3.6624
X4.5492Y-4.6063
X4.5492Y-4.6457
X4.5492Y-4.685
X4.5531Y-3.3193
X4.5719Y-3.6407
X4.5719Y-3.6624
X4.5728Y-2.4843
X4.5921Y-4.2264
X4.6004Y-3.7953
X4.6004Y-3.8189
X4.6004Y-3.8425
X4.6004Y-3.9921
X4.6004Y-4.0197
X4.6004Y-4.0472
X4.6083Y-3.6398
X4.6083Y-3.6614
X4.624Y-3.7953
X4.624Y-3.8189
X4.624Y-3.8425
X4.628Y-3.9921
X4.628Y-4.0197
X4.628Y-4.0472
X4.6319Y-3.6398
X4.6319Y-3.6614
X4.6339Y-2.4449
X4.6354Y-4.5059
X4.6358Y-4.263
X4.6388Y-4.5522
X4.6437Y-4.3051
X4.6457Y-4.4587
X4.6575Y-3.1969
X4.6586Y-4.483
X4.6736Y-2.4445
X4.6776Y-4.3346
X4.689Y-3.9921
X4.689Y-4.0197
X4.689Y-4.0472
X4.6929Y-3.7953
X4.6929Y-3.8189
X4.6929Y-3.8425
X4.7146Y-4.5295
X4.7165Y-3.7953
X4.7165Y-3.8189
X4.7165Y-3.8425
X4.7165Y-3.9921
X4.7165Y-4.0197
X4.7165Y-4.0472
X4.7421Y-3.1969
X4.7815Y-3.7953
X4.7815Y-3.8189
X4.7815Y-3.8425
X4.7815Y-3.9921
X4.7815Y-4.0197
X4.7815Y-4.0472
X4.8051Y-3.7953
X4.8051Y-3.8189
X4.8051Y-3.8425
X4.8091Y-3.9921
X4.8091Y-4.0197
X4.8091Y-4.0472
X4.811Y-3.2146
X4.8551Y-2.4593
X4.8606Y-2.6693
X4.8858Y-2.4091
X4.8996Y-4.5
X4.8996Y-4.5256
X4.8996Y-4.6969
X4.8996Y-4.7224
X4.9291Y-4.8307
X4.9325Y-3.1711
X4.9488Y-3.4803
X4.9594Y-3.5039
X4.9594Y-3.5364
X4.9594Y-3.5689
X4.9594Y-3.6014
X4.9594Y-3.6339
X4.9602Y-2.4319
X4.9602Y-2.472
X4.9602Y-3.3795
X4.9677Y-3.1717
X4.9735Y-3.2618
X4.9764Y-3.4803
X4.9882Y-5.0728
X4.9925Y-3.1362
X5.0087Y-3.2496
X5.0118Y-4.8307
X5.0138Y-3.503
X5.0157Y-3.5787
X5.0157Y-3.6102
X5.0157Y-3.6417
X5.0157Y-3.6693
X5.0157Y-3.6969
X5.0157Y-3.7244
X5.0157Y-3.7559
X5.0157Y-3.7874
X5.0157Y-4.0118
X5.0157Y-4.0413
X5.0157Y-4.0728
X5.0157Y-4.1043
X5.0157Y-4.1594
X5.0157Y-4.1909
X5.0157Y-4.2224
X5.0157Y-4.2539
X5.0169Y-2.3831
X5.0177Y-5.4843
X5.0433Y-3.503
X5.0472Y-3.2118
X5.0472Y-3.5787
X5.0472Y-3.6102
X5.0472Y-3.6417
X5.0472Y-3.6693
X5.0472Y-3.6969
X5.0472Y-3.7244
X5.0472Y-3.7559
X5.0472Y-3.7874
X5.0472Y-4.0118
X5.0472Y-4.0413
X5.0472Y-4.0728
X5.0472Y-4.1043
X5.0472Y-4.1594
X5.0472Y-4.1909
X5.0472Y-4.2224
X5.0472Y-4.2539
X5.0787Y-3.5787
X5.0787Y-3.6102
X5.0787Y-3.6417
X5.0787Y-3.6693
X5.0787Y-3.6969
X5.0787Y-3.7244
X5.0787Y-3.7559
X5.0787Y-3.7874
X5.0787Y-4.0118
X5.0787Y-4.0413
X5.0787Y-4.0728
X5.0787Y-4.1043
X5.0787Y-4.1594
X5.0787Y-4.1909
X5.0787Y-4.2224
X5.0787Y-4.2539
X5.0984Y-5.0724
X5.1083Y-3.5787
X5.1083Y-3.6102
X5.1083Y-3.6417
X5.1083Y-3.6693
X5.1083Y-3.6969
X5.1083Y-3.7244
X5.1083Y-3.7559
X5.1083Y-3.7874
X5.1102Y-4.0118
X5.1102Y-4.0413
X5.1102Y-4.0728
X5.1102Y-4.1043
X5.1102Y-4.1594
X5.1102Y-4.1909
X5.1102Y-4.2224
X5.1102Y-4.2539
X5.126Y-2.2945
X5.1299Y-2.0482
X5.135Y-4.5953
X5.1358Y-4.5576
X5.1437Y-5.035
X5.1744Y-5.5831
X5.185Y-5.035
X5.1876Y-1.738
X5.2Y-5.5315
X5.2051Y-4.5224
X5.2136Y-5.2864
X5.2185Y-1.7169
X5.2343Y-5.0346
X5.2441Y-4.7598
X5.2461Y-4.4823
X5.2736Y-4.002
X5.2756Y-5.0315
X5.2854Y-5.4724
X5.2878Y-2.611
X5.3071Y-3.9882
X5.3071Y-4.0157
X5.3071Y-4.0433
X5.311Y-3.7953
X5.311Y-3.8189
X5.311Y-3.8425
X5.3319Y-2.6094
X5.3335Y-3.4272
X5.3335Y-3.4508
X5.3335Y-3.4744
X5.3335Y-3.498
X5.3346Y-3.7953
X5.3346Y-3.8189
X5.3346Y-3.8425
X5.3346Y-3.9882
X5.3346Y-4.0157
X5.3346Y-4.0433
X5.3386Y-5.3622
X5.3406Y-5.3248
X5.3535Y-5.1138
X5.3543Y-3.6732
X5.3543Y-3.6969
X5.3543Y-3.7205
X5.3543Y-3.7441
X5.3583Y-3.4272
X5.3583Y-3.4508
X5.3583Y-3.4744
X5.3583Y-3.498
X5.3622Y-4.4626
X5.3732Y-2.3335
X5.3764Y-1.6567
X5.378Y-3.6732
X5.378Y-3.6969
X5.378Y-3.7205
X5.378Y-3.7441
X5.3794Y-2.4363
X5.3819Y-3.4272
X5.3819Y-3.4508
X5.3819Y-3.4744
X5.3819Y-3.498
X5.3976Y-3.9872
X5.3976Y-4.0148
X5.3976Y-4.0423
X5.3984Y-1.6764
X5.4016Y-3.7943
X5.4016Y-3.8179
X5.4016Y-3.8415
X5.4071Y-3.4272
X5.4071Y-3.4508
X5.4071Y-3.4744
X5.4071Y-3.498
X5.4154Y-3.2594
X5.4168Y-2.4363
X5.4181Y-3.1937
X5.4248Y-3.3421
X5.4252Y-3.7943
X5.4252Y-3.8179
X5.4252Y-3.8415
X5.4252Y-3.9872
X5.4252Y-4.0148
X5.4252Y-4.0423
X5.4642Y-5.6976
X5.4697Y-2.3197
X5.4701Y-2.2902
X5.4701Y-2.3461
X5.4701Y-2.3739
X5.4713Y-3.2921
X5.4795Y-2.211
X5.4921Y-3.7943
X5.4921Y-3.8179
X5.4921Y-3.8415
X5.4921Y-3.9872
X5.4921Y-4.0148
X5.4921Y-4.0423
X5.5016Y-3.3236
X5.5016Y-4.4787
X5.5053Y-3.2645
X5.5069Y-3.6486
X5.5069Y-3.6703
X5.5157Y-3.7943
X5.5157Y-3.8179
X5.5157Y-3.8415
X5.5197Y-3.9872
X5.5197Y-4.0148
X5.5197Y-4.0423
X5.5305Y-3.6486
X5.5305Y-3.6703
X5.531Y-3.2118
X5.5311Y-3.1819
X5.565Y-4.5335
X5.5659Y-3.6467
X5.5659Y-3.6683
X5.5669Y-4.5059
X5.5689Y-3.1819
X5.5754Y-3.2118
X5.5768Y-4.4783
X5.5827Y-3.7943
X5.5827Y-3.8179
X5.5827Y-3.8415
X5.5827Y-3.9872
X5.5827Y-4.0148
X5.5827Y-4.0423
X5.5896Y-3.6467
X5.5896Y-3.6683
X5.6039Y-2.2173
X5.6063Y-3.7943
X5.6063Y-3.8179
X5.6063Y-3.8415
X5.6102Y-3.9872
X5.6102Y-4.0148
X5.6102Y-4.0423
X5.6146Y-4.5894
X5.6179Y-5.5858
X5.6268Y-4.5256
X5.6398Y-3.2016
X5.6608Y-2.3224
X5.6608Y-2.3583
X5.6608Y-2.3941
X5.6608Y-2.4299
X5.6608Y-2.4657
X5.6608Y-2.5016
X5.6642Y-4.3339
X5.6663Y-4.263
X5.6663Y-4.3
X5.6669Y-4.589
X5.6693Y-3.9872
X5.6693Y-4.0148
X5.6693Y-4.0423
X5.6732Y-3.7943
X5.6732Y-3.8179
X5.6732Y-3.8415
X5.6957Y-3.2051
X5.6969Y-3.7943
X5.6969Y-3.8179
X5.6969Y-3.8415
X5.6969Y-3.9872
X5.6969Y-4.0148
X5.6969Y-4.0423
X5.7024Y-2.3224
X5.7024Y-2.3583
X5.7024Y-2.3941
X5.7024Y-2.4299
X5.7024Y-2.4657
X5.7024Y-2.5016
X5.7228Y-4.2244
X5.7339Y-3.2051
X5.7346Y-3.1638
X5.744Y-2.3224
X5.744Y-2.3583
X5.744Y-2.3941
X5.744Y-2.4299
X5.744Y-2.4657
X5.744Y-2.5016
X5.7622Y-3.1811
X5.763Y-3.7943
X5.763Y-3.8179
X5.763Y-3.8415
X5.763Y-3.9872
X5.763Y-4.0148
X5.763Y-4.0423
X5.7677Y-4.2283
X5.7677Y-4.2717
X5.7677Y-4.311
X5.7677Y-4.3799
X5.7677Y-4.4193
X5.7677Y-4.4587
X5.7677Y-4.498
X5.7677Y-4.5374
X5.7717Y-4.6083
X5.7717Y-4.6476
X5.7717Y-4.687
X5.7856Y-2.3224
X5.7856Y-2.3583
X5.7856Y-2.3941
X5.7856Y-2.4299
X5.7856Y-2.4657
X5.7856Y-2.5016
X5.7866Y-3.7943
X5.7866Y-3.8179
X5.7866Y-3.8415
X5.7906Y-3.9872
X5.7906Y-4.0148
X5.7906Y-4.0423
X5.7906Y-3.1599
X5.8071Y-4.2283
X5.8071Y-4.2717
X5.8071Y-4.311
X5.8071Y-4.3799
X5.8071Y-4.4193
X5.8071Y-4.4587
X5.8071Y-4.498
X5.8071Y-4.5374
X5.811Y-4.6083
X5.811Y-4.6476
X5.811Y-4.687
X5.8181Y-3.1594
X5.8272Y-2.3217
X5.8272Y-2.3575
X5.8272Y-2.3933
X5.8272Y-2.4291
X5.8272Y-2.465
X5.8272Y-2.5008
X5.8465Y-4.2283
X5.8465Y-4.2717
X5.8465Y-4.311
X5.8465Y-4.3799
X5.8465Y-4.4193
X5.8465Y-4.4587
X5.8465Y-4.498
X5.8465Y-4.5374
X5.8465Y-2.05
X5.8465Y-2.0858
X5.8484Y-3.1594
X5.8504Y-4.6083
X5.8504Y-4.6476
X5.8504Y-4.687
X5.8579Y-2.4654
X5.8579Y-2.5012
X5.8697Y-2.9098
X5.8858Y-4.2283
X5.8858Y-4.2717
X5.8858Y-4.311
X5.8858Y-4.3799
X5.8858Y-4.4193
X5.8858Y-4.4587
X5.8858Y-4.498
X5.8858Y-4.5374
X5.8881Y-2.05
X5.8881Y-2.0858
X5.8898Y-4.6083
X5.8898Y-4.6476
X5.8898Y-4.687
X5.8953Y-2.9299
X5.8995Y-2.4654
X5.8995Y-2.5012
X5.915Y-2.8819
X5.9154Y-3.4854
X5.9154Y-3.5182
X5.9154Y-3.5509
X5.9154Y-3.5837
X5.9154Y-3.6165
X5.9154Y-3.6492
X5.9174Y-3.3881
X5.9252Y-4.2283
X5.9252Y-4.2717
X5.9252Y-4.311
X5.9252Y-4.3799
X5.9252Y-4.4193
X5.9252Y-4.4587
X5.9252Y-4.498
X5.9252Y-4.5374
X5.9291Y-4.6083
X5.9291Y-4.6476
X5.9291Y-4.687
X5.9297Y-2.05
X5.9297Y-2.0858
X5.9411Y-2.4654
X5.9411Y-2.5012
X5.95Y-2.8494
X5.9557Y-3.4813
X5.9606Y-3.0811
X5.9646Y-4.2283
X5.9646Y-4.2717
X5.9646Y-4.311
X5.9646Y-4.3799
X5.9646Y-4.4193
X5.9646Y-4.4587
X5.9646Y-4.498
X5.9646Y-4.5374
X5.9665Y-3.5154
X5.9685Y-4.6083
X5.9685Y-4.6476
X5.9685Y-4.687
X5.9713Y-2.05
X5.9713Y-2.0858
X5.9791Y-2.8799
X5.9807Y-2.9291
X5.9827Y-2.4654
X5.9827Y-2.5012
X5.9872Y-3.4813
X6.0079Y-3.9488
X6.0079Y-3.9803
X6.0079Y-4.0138
X6.0079Y-4.0453
X6.0079Y-4.0768
X6.0079Y-4.1083
X6.0079Y-4.1417
X6.0079Y-4.1732
X6.0124Y-2.3217
X6.0124Y-2.3575
X6.0124Y-2.3933
X6.0124Y-2.4291
X6.0124Y-2.465
X6.0124Y-2.5008
X6.0128Y-2.0508
X6.0128Y-2.0866
X6.0128Y-2.1224
X6.0128Y-2.1583
X6.0128Y-2.1941
X6.0128Y-2.2299
X6.013Y-4.224
X6.0157Y-3.6142
X6.0157Y-3.6417
X6.0157Y-3.6693
X6.0157Y-3.6969
X6.0157Y-3.7244
X6.0157Y-3.752
X6.0157Y-3.7795
X6.0157Y-3.8071
X6.0197Y-3.2591
X6.0339Y-2.724
X6.0394Y-3.9488
X6.0394Y-3.9803
X6.0394Y-4.0138
X6.0394Y-4.0453
X6.0394Y-4.0768
X6.0394Y-4.1083
X6.0394Y-4.1417
X6.0394Y-4.1732
X6.0433Y-3.6142
X6.0433Y-3.6417
X6.0433Y-3.6693
X6.0433Y-3.6969
X6.0433Y-3.7244
X6.0433Y-3.752
X6.0433Y-3.7795
X6.0433Y-3.8071
X6.054Y-2.3217
X6.054Y-2.3575
X6.054Y-2.3933
X6.054Y-2.4291
X6.054Y-2.465
X6.054Y-2.5008
X6.0544Y-2.0508
X6.0544Y-2.0866
X6.0544Y-2.1224
X6.0544Y-2.1583
X6.0544Y-2.1941
X6.0544Y-2.2299
X6.055Y-4.5552
X6.0552Y-4.5038
X6.065Y-4.262
X6.065Y-4.299
X6.0689Y-3.0039
X6.0689Y-3.0591
X6.0689Y-3.1161
X6.0709Y-3.6142
X6.0709Y-3.6417
X6.0709Y-3.6693
X6.0709Y-3.6969
X6.0709Y-3.7244
X6.0709Y-3.752
X6.0709Y-3.7795
X6.0709Y-3.8071
X6.0709Y-3.9488
X6.0709Y-3.9803
X6.0709Y-4.0138
X6.0709Y-4.0453
X6.0709Y-4.0768
X6.0709Y-4.1083
X6.0709Y-4.1417
X6.0709Y-4.1732
X6.0709Y-4.3327
X6.0827Y-3.1689
X6.0906Y-4.6417
X6.0945Y-4.5492
X6.0956Y-2.3217
X6.0956Y-2.3575
X6.0956Y-2.3933
X6.0956Y-2.4291
X6.0956Y-2.465
X6.0956Y-2.5008
X6.096Y-2.0508
X6.096Y-2.0866
X6.096Y-2.1224
X6.096Y-2.1583
X6.096Y-2.1941
X6.096Y-2.2299
X6.0984Y-3.6142
X6.0984Y-3.6417
X6.0984Y-3.6693
X6.0984Y-3.6969
X6.0984Y-3.7244
X6.0984Y-3.752
X6.0984Y-3.7795
X6.0984Y-3.8071
X6.0996Y-2.724
X6.1024Y-3.9488
X6.1024Y-3.9803
X6.1024Y-4.0138
X6.1024Y-4.0453
X6.1024Y-4.0768
X6.1024Y-4.1083
X6.1024Y-4.1417
X6.1024Y-4.1732
X6.1164Y-4.5098
X6.1181Y-1.874
X6.1181Y-1.9213
X6.1347Y-4.4892
X6.1372Y-2.3217
X6.1372Y-2.3575
X6.1372Y-2.3933
X6.1372Y-2.4291
X6.1372Y-2.465
X6.1372Y-2.5008
X6.1375Y-2.0508
X6.1375Y-2.0866
X6.1375Y-2.1224
X6.1375Y-2.1583
X6.1375Y-2.1941
X6.1375Y-2.2299
X6.1732Y-3.1772
X6.1787Y-2.3209
X6.1787Y-2.3567
X6.1787Y-2.3925
X6.1787Y-2.4283
X6.1787Y-2.4642
X6.1787Y-2.5
X6.1791Y-2.05
X6.1791Y-2.0858
X6.1791Y-2.1217
X6.1791Y-2.1575
X6.1791Y-2.1933
X6.1791Y-2.2291
X6.2067Y-4.7264
X6.2087Y-4.563
X6.2106Y-4.6457
X6.2126Y-4.4016
X6.2126Y-4.4823
X6.2283Y-2.7236
X6.2551Y-3.0213
X6.3268Y-4.0433
X6.3346Y-3.6102
X6.3354Y-1.8677
X6.3567Y-2.7236
X6.3606Y-3.3614
X6.3614Y-3.2461
T2
X4.1169Y-4.8976
X4.176Y-4.8976
X4.7134Y-3.3799
X4.7134Y-3.435
X4.7134Y-3.4902
X4.7638Y-3.3406
X4.7638Y-3.3799
X4.7638Y-3.435
X4.7638Y-3.4902
X4.7638Y-3.5295
X4.8142Y-3.3799
X4.8142Y-3.435
X4.8142Y-3.4902
X5.672Y-3.3799
X5.672Y-3.435
X5.672Y-3.4902
X5.7224Y-3.3406
X5.7224Y-3.3799
X5.7224Y-3.435
X5.7224Y-3.4902
X5.7224Y-3.5295
X5.7728Y-3.3799
X5.7728Y-3.435
X5.7728Y-3.4902
T3
X4.4154Y-1.6063
X4.4224Y-2.1201
X4.4224Y-2.1752
X4.4224Y-2.2303
X4.4646Y-1.6063
X4.4646Y-1.7421
X4.478Y-2.1201
X4.478Y-2.1752
X4.478Y-2.2303
X4.5146Y-1.7402
X4.5157Y-1.6063
X4.5331Y-2.1201
X4.5331Y-2.1752
X4.5331Y-2.2303
T4
X5.2256Y-2.1666
X5.2378Y-2.0484
X5.263Y-2.1509
X5.263Y-2.1843
X5.2974Y-2.0475
X5.2984Y-2.1509
X5.2984Y-2.1843
X5.3004Y-1.8644
X5.3073Y-1.954
X5.4106Y-1.8654
X5.5169Y-1.8654
X5.5494Y-1.9727
T5
X3.8228Y-1.6339
X3.8228Y-5.7677
X3.8505Y-1.567
X3.8505Y-1.7007
X3.8505Y-5.7009
X3.8505Y-5.8345
X3.9173Y-1.5394
X3.9173Y-1.7283
X3.9173Y-5.6732
X3.9173Y-5.8622
X3.9841Y-1.567
X3.9841Y-1.7007
X3.9841Y-5.7009
X3.9841Y-5.8345
X4.0118Y-1.6339
X4.0118Y-5.7677
X6.3031Y-1.6339
X6.3031Y-5.7677
X6.3308Y-1.567
X6.3308Y-1.7007
X6.3308Y-5.7009
X6.3308Y-5.8345
X6.3976Y-1.5394
X6.3976Y-1.7283
X6.3976Y-5.6732
X6.3976Y-5.8622
X6.4645Y-1.567
X6.4645Y-1.7007
X6.4645Y-5.7009
X6.4645Y-5.8345
X6.4921Y-1.6339
X6.4921Y-5.7677
T6
X4.1732Y-2.6535
T8
X5.8189Y-1.6965
X5.8189Y-1.8965
X5.8346Y-1.5965
X5.8346Y-1.7965
X6.313Y-2.0571
X6.313Y-2.4902
T9
X5.4165Y-5.7594
X5.5165Y-5.7594
X5.6165Y-5.7594
X5.7165Y-5.7594
T10
X5.5165Y-5.8445
T11
X5.9193Y-2.1752
X5.9193Y-2.372
T12
X3.9173Y-1.6339
X3.9173Y-5.7677
X6.3976Y-1.6339
X6.3976Y-5.7677
T13
X4.1732Y-3.4252
X4.1732Y-5.3937
X6.1417Y-3.4252
X6.1417Y-5.3937
T7
G00X4.6469Y-1.5939
M15
G01X4.6469Y-1.6254
M16
G05
G00X4.6469Y-1.7526
M15
G01X4.6469Y-1.7959
M16
G05
G00X4.987Y-1.5939
M15
G01X4.987Y-1.6254
M16
G05
G00X4.987Y-1.7526
M15
G01X4.987Y-1.7959
M16
G05
M30
